<svg data-v-abb8086a="" xmlns="http://www.w3.org/2000/svg" width="24" height="24" viewBox="0 0 24 24" fill="none"><path data-v-abb8086a="" fill-rule="evenodd" clip-rule="evenodd" d="M6.906 8.31801C6.894 8.29101 6.884 8.26201 6.876 8.23301C6.854 8.15101 6.848 8.06601 6.859 7.97901C5.46 7.03801 5.151 5.97901 5.096 5.34401L5.095 5.33601C5.066 4.73301 5.203 4.13301 5.492 3.60301C5.778 3.07901 6.201 2.64401 6.716 2.34301L6.726 2.33701C7.065 2.11701 7.451 1.98001 7.852 1.93801C8.14 1.90701 8.431 1.92501 8.71 1.99101C8.956 1.59501 9.288 1.25801 9.685 1.00801C10.179 0.695007 10.752 0.529007 11.337 0.529007C11.923 0.529007 12.496 0.695007 12.99 1.00801C13.386 1.25801 13.719 1.59501 13.964 1.99001C14.244 1.92501 14.535 1.90701 14.823 1.93701C15.224 1.98001 15.61 2.11701 15.945 2.33501C16.466 2.63601 16.895 3.07401 17.183 3.60301C17.473 4.13301 17.61 4.73201 17.58 5.34301L17.579 5.35101C17.524 5.97901 17.216 7.03701 15.817 7.97901C15.827 8.06401 15.821 8.15001 15.799 8.23201C15.79 8.26701 15.777 8.30101 15.763 8.33301C17.92 9.89001 20.675 13.555 20.676 16.76C20.676 21.291 16.013 23.4 11.338 23.4C6.662 23.4 2 21.291 2 16.76C2 13.481 4.733 9.85301 6.906 8.31801ZM6.399 5.23601C6.481 6.18401 7.391 6.97201 8.879 7.54701C8.972 7.55501 9.065 7.56201 9.158 7.56901C9.139 7.49401 9.124 7.41901 9.111 7.34401C9.096 7.25801 9.099 7.17101 9.119 7.08601C9.138 7.00201 9.174 6.92201 9.225 6.85101C9.276 6.78101 9.341 6.72101 9.415 6.67601C9.489 6.63101 9.571 6.60101 9.657 6.58701C9.743 6.57401 9.831 6.57901 9.915 6.60001C9.999 6.62101 10.079 6.65901 10.148 6.71101C10.217 6.76301 10.276 6.82901 10.32 6.90401C10.361 6.97501 10.389 7.05201 10.401 7.13301L10.403 7.14301C10.438 7.31901 10.502 7.48601 10.591 7.64101C11.088 7.65501 11.587 7.65501 12.083 7.64001C12.175 7.48201 12.24 7.30901 12.274 7.13801C12.287 7.05401 12.316 6.97401 12.36 6.90001C12.405 6.82701 12.463 6.76301 12.532 6.71201C12.601 6.66201 12.679 6.62501 12.763 6.60401C12.846 6.58401 12.932 6.58001 13.018 6.59201C13.102 6.60501 13.184 6.63501 13.257 6.67901C13.331 6.72401 13.395 6.78201 13.446 6.85101C13.497 6.92001 13.534 6.99901 13.554 7.08201C13.575 7.16501 13.579 7.25201 13.565 7.33901V7.34201C13.552 7.41801 13.536 7.49401 13.517 7.57001C13.612 7.56301 13.706 7.55501 13.803 7.54601C15.288 6.97201 16.194 6.18401 16.277 5.23701C16.346 4.45001 15.819 3.78001 15.277 3.45801L15.267 3.45201L15.257 3.44501C15.082 3.32701 14.88 3.25501 14.669 3.23601C14.549 3.22501 14.428 3.23101 14.31 3.25501C14.309 3.58101 14.246 3.90501 14.126 4.20601C14.094 4.28601 14.048 4.35901 13.988 4.42101C13.928 4.48301 13.857 4.53301 13.779 4.56701C13.7 4.60201 13.615 4.62001 13.53 4.62201C13.443 4.62401 13.358 4.60801 13.278 4.57701C13.198 4.54601 13.125 4.49901 13.063 4.44001C13.002 4.38001 12.952 4.30901 12.918 4.23001C12.883 4.15201 12.865 4.06701 12.863 3.98101C12.861 3.89501 12.877 3.81001 12.909 3.72601L12.911 3.72301C13.009 3.48601 13.033 3.22401 12.979 2.97301C12.834 2.29901 12.134 1.83501 11.337 1.83501C10.541 1.83501 9.841 2.29801 9.697 2.97001C9.643 3.22201 9.667 3.48401 9.767 3.72401L9.768 3.72701C9.833 3.88801 9.83 4.06701 9.762 4.22701C9.694 4.38601 9.566 4.51101 9.406 4.57601C9.328 4.60801 9.245 4.62401 9.161 4.62401C9.031 4.62401 8.903 4.58501 8.795 4.51101C8.687 4.43801 8.603 4.33401 8.555 4.21301C8.432 3.90801 8.369 3.58301 8.367 3.25701C8.248 3.23301 8.127 3.22601 8.006 3.23701C7.795 3.25501 7.593 3.32801 7.418 3.44601L7.408 3.45301L7.398 3.45901C6.857 3.78001 6.33 4.45001 6.399 5.23601ZM11.337 22.092C13.361 22.092 15.396 21.671 16.922 20.767C18.382 19.901 19.368 18.585 19.368 16.76C19.368 14.562 17.884 12.214 16.391 10.637C15.794 10.007 15.194 9.50001 14.68 9.17901C14.401 9.00401 14.155 8.88501 13.953 8.84601C13.383 8.89301 11.692 8.96201 11.338 8.96201C10.984 8.96201 9.294 8.89301 8.724 8.84701C8.523 8.88401 8.277 9.00401 7.997 9.17901C7.483 9.50001 6.883 10.007 6.286 10.636C4.792 12.214 3.307 14.561 3.307 16.76C3.307 18.585 4.293 19.901 5.753 20.767C7.28 21.671 9.314 22.092 11.337 22.092Z" fill="#AFAFAF"></path><path data-v-abb8086a="" fill-rule="evenodd" clip-rule="evenodd" d="M12.7099 11.618H12.7149C13.1549 11.611 13.5899 11.706 13.9859 11.896C14.3849 12.087 14.7329 12.369 15.0089 12.726L15.0139 12.734C15.2939 13.133 15.4769 13.591 15.5499 14.072C15.6229 14.553 15.5829 15.044 15.4349 15.507C15.0249 16.838 13.8039 17.985 11.9629 18.697C11.5609 18.853 11.1149 18.853 10.7129 18.697C8.8709 17.984 7.6499 16.837 7.2399 15.506C7.0919 15.043 7.0519 14.552 7.1249 14.071C7.1979 13.59 7.3819 13.132 7.6669 12.725L7.6719 12.718C7.9429 12.368 8.29089 12.087 8.68989 11.896C9.08589 11.706 9.5209 11.611 9.9539 11.618C10.4439 11.608 10.9249 11.741 11.3369 11.997C11.7479 11.743 12.2239 11.61 12.7099 11.618ZM11.3319 17.907C11.2759 17.851 11.2339 17.82 11.2339 17.851C11.2339 17.868 11.2349 17.885 11.2369 17.901C11.2679 17.905 11.2999 17.907 11.3319 17.907ZM11.4899 17.478C14.0739 16.479 14.7789 14.705 13.9489 13.492L13.9419 13.483C13.7969 13.307 13.6149 13.166 13.4079 13.069C13.1949 12.969 12.9609 12.92 12.7249 12.926H12.7089L12.6929 12.925C12.4909 12.914 12.2889 12.96 12.1109 13.056C11.9329 13.153 11.7849 13.297 11.6849 13.473L11.3379 14.078L10.9909 13.473C10.8899 13.297 10.7419 13.153 10.5639 13.056C10.3859 12.96 10.1849 12.914 9.9829 12.925L9.9669 12.926H9.9509C9.7149 12.92 9.4809 12.969 9.2669 13.069C9.0569 13.167 8.8719 13.312 8.7269 13.492L8.7199 13.501C7.8999 14.715 8.60789 16.482 11.1859 17.479C11.2839 17.517 11.3919 17.516 11.4899 17.478Z" fill="#AFAFAF"></path><path data-v-abb8086a="" fill-rule="evenodd" clip-rule="evenodd" d="M19.5651 4.772C19.7561 4.433 20.2441 4.433 20.4361 4.772L20.6531 5.157C20.6981 5.237 20.7631 5.302 20.8431 5.347L21.2281 5.565C21.5671 5.756 21.5671 6.244 21.2281 6.436L20.8431 6.653C20.7631 6.698 20.6981 6.763 20.6531 6.843L20.4361 7.228C20.2441 7.567 19.7561 7.567 19.5651 7.228L19.3471 6.843C19.3021 6.763 19.2371 6.698 19.1571 6.653L18.7721 6.436C18.4331 6.244 18.4331 5.756 18.7721 5.565L19.1571 5.347C19.2371 5.302 19.3021 5.237 19.3471 5.157L19.5651 4.772ZM20.5441 9.01C20.7211 8.618 21.2791 8.618 21.4561 9.01L21.6651 9.474C21.7021 9.555 21.7601 9.626 21.8331 9.677L22.4201 10.091C22.7031 10.291 22.7031 10.71 22.4201 10.909L21.8331 11.323C21.7601 11.374 21.7021 11.445 21.6651 11.526L21.4561 11.99C21.2791 12.382 20.7211 12.382 20.5441 11.99L20.3351 11.526C20.2981 11.445 20.2401 11.374 20.1671 11.323L19.5801 10.909C19.2971 10.71 19.2971 10.291 19.5801 10.091L20.1671 9.677C20.2401 9.626 20.2981 9.555 20.3351 9.474L20.5441 9.01Z" fill="#AFAFAF"></path></svg>